<svg width="2000" height="400" viewBox="0 0 902.775 115.051" xmlns="http://www.w3.org/2000/svg">
<g id="svgGroup" stroke-linecap="round" fill-rule="evenodd" font-size="9pt" stroke="#00000000" stroke-width="0.25mm" fill="#ffffff" style="stroke:#00000000;stroke-width:0.25mm;fill:#ffffff"><path d="M 610.275 114.6 L 591.075 58.95 L 568.125 113.1 A 21.264 21.264 0 0 1 566.782 113.416 Q 566.028 113.57 565.159 113.701 A 43.445 43.445 0 0 1 564.075 113.85 Q 562.425 114.056 561.129 114.192 A 82.853 82.853 0 0 1 560.025 114.3 L 529.725 28.5 Q 527.775 23.1 526.425 20.1 A 18.63 18.63 0 0 0 525.552 18.386 Q 524.559 16.678 523.425 15.75 Q 521.848 14.459 519.379 13.923 A 14.053 14.053 0 0 0 519.15 13.875 Q 516.525 13.35 512.025 12.9 Q 511.725 10.5 512.025 8.1 Q 516.975 8.1 522.75 8.25 Q 528.525 8.4 533.625 8.4 Q 536.616 8.4 540.492 8.329 A 639.872 639.872 0 0 0 544.2 8.25 Q 548.48 8.147 552.015 8.115 A 336.34 336.34 0 0 1 555.075 8.1 Q 555.483 10.139 555.151 12.425 A 15.69 15.69 0 0 1 555.075 12.9 Q 550.511 13.345 547.929 13.873 A 19.263 19.263 0 0 0 546.375 14.25 Q 544.2 14.89 543.88 16.947 A 4.897 4.897 0 0 0 543.825 17.7 A 6.313 6.313 0 0 0 543.878 18.484 Q 543.98 19.291 544.275 20.325 Q 544.725 21.9 545.475 24.3 L 569.175 93 L 587.925 49.5 L 580.725 28.65 Q 578.925 23.25 577.65 20.175 A 20.575 20.575 0 0 0 576.842 18.441 Q 575.912 16.683 574.875 15.75 A 7.63 7.63 0 0 0 572.583 14.346 A 10.101 10.101 0 0 0 571.05 13.875 Q 568.725 13.35 564.675 12.9 Q 564.375 10.5 564.675 8.1 Q 569.925 8.1 575.325 8.25 A 380.417 380.417 0 0 0 585.186 8.399 A 348.679 348.679 0 0 0 585.825 8.4 Q 588.919 8.4 592.934 8.329 A 687.652 687.652 0 0 0 596.775 8.25 A 617.898 617.898 0 0 1 602.132 8.147 Q 604.576 8.112 606.753 8.103 A 347.985 347.985 0 0 1 608.175 8.1 Q 608.583 10.139 608.251 12.425 A 15.69 15.69 0 0 1 608.175 12.9 Q 600.825 13.5 597.9 14.25 A 4.939 4.939 0 0 0 596.555 14.795 Q 594.975 15.756 594.975 17.85 Q 594.975 19.522 595.926 22.622 A 51.699 51.699 0 0 0 596.475 24.3 L 619.275 93.3 L 643.725 26.7 A 186.297 186.297 0 0 0 644.292 25.266 Q 644.981 23.501 645.452 22.173 A 60.905 60.905 0 0 0 645.6 21.75 A 14.521 14.521 0 0 0 646.011 20.351 Q 646.184 19.62 646.244 18.965 A 7.358 7.358 0 0 0 646.275 18.3 A 4.09 4.09 0 0 0 645.944 16.614 Q 645.492 15.603 644.421 14.978 A 5.867 5.867 0 0 0 643.275 14.475 A 18.243 18.243 0 0 0 641.503 14.011 Q 638.438 13.35 632.925 12.9 A 14.553 14.553 0 0 1 632.709 10.897 Q 632.656 9.445 632.925 8.1 A 163.045 163.045 0 0 1 634.097 8.105 Q 635.431 8.114 637.284 8.144 A 708.319 708.319 0 0 1 639.075 8.175 Q 643.125 8.25 647.25 8.325 A 736.58 736.58 0 0 0 649.186 8.358 Q 651.052 8.387 652.379 8.396 A 161.723 161.723 0 0 0 653.475 8.4 Q 658.125 8.4 662.025 8.25 Q 665.925 8.1 670.425 8.1 Q 670.875 10.5 670.425 12.9 Q 667.502 13.202 665.291 13.572 A 43.178 43.178 0 0 0 663.3 13.95 A 12.237 12.237 0 0 0 660.512 14.898 A 10.149 10.149 0 0 0 658.575 16.125 Q 656.625 17.7 654.9 21.075 A 58.087 58.087 0 0 0 653.771 23.426 Q 652.472 26.278 650.925 30.3 L 618.225 113.4 Q 617.217 113.702 615.769 113.937 A 38.455 38.455 0 0 1 614.25 114.15 Q 611.775 114.45 610.275 114.6 Z M 282.525 97.65 L 282.525 67.35 Q 282.525 59.193 280.295 54.732 A 12.876 12.876 0 0 0 279.9 54 Q 277.275 49.5 269.175 49.5 A 22.499 22.499 0 0 0 252.63 56.426 A 28.389 28.389 0 0 0 252.075 57 A 39.09 39.09 0 0 1 252.346 60.442 A 46.134 46.134 0 0 1 252.375 62.1 L 252.375 96.15 A 81.345 81.345 0 0 0 252.417 98.869 Q 252.505 101.478 252.774 103.198 A 13.511 13.511 0 0 0 253.05 104.55 A 5.447 5.447 0 0 0 253.663 106.022 A 3.952 3.952 0 0 0 255.975 107.775 Q 257.846 108.336 261.376 108.638 A 71.993 71.993 0 0 0 262.875 108.75 Q 263.175 111 262.875 113.4 Q 258.675 113.4 254.475 113.25 Q 251.588 113.147 247.991 113.115 A 381.767 381.767 0 0 0 244.575 113.1 Q 240.759 113.1 237.617 113.171 A 197.554 197.554 0 0 0 234.9 113.25 A 225.276 225.276 0 0 1 228.984 113.39 A 194.848 194.848 0 0 1 227.025 113.4 Q 226.575 111 227.025 108.75 A 58.512 58.512 0 0 0 229.3 108.552 Q 231.357 108.328 232.755 107.992 A 12.779 12.779 0 0 0 233.55 107.775 A 4.217 4.217 0 0 0 236.236 105.452 A 5.564 5.564 0 0 0 236.475 104.85 Q 237.088 103.011 237.2 99.367 A 56.044 56.044 0 0 0 237.225 97.65 L 237.225 67.35 A 49.655 49.655 0 0 0 237.023 62.716 Q 236.568 57.878 235.087 54.791 A 13.063 13.063 0 0 0 234.675 54 A 7.793 7.793 0 0 0 230.867 50.696 Q 229.413 50.061 227.53 49.763 A 23.462 23.462 0 0 0 223.875 49.5 A 21.244 21.244 0 0 0 209.06 55.462 A 29.169 29.169 0 0 0 207.375 57.15 L 207.375 96.15 A 81.345 81.345 0 0 0 207.417 98.869 Q 207.505 101.478 207.774 103.198 A 13.511 13.511 0 0 0 208.05 104.55 A 5.264 5.264 0 0 0 208.69 106.052 A 4.029 4.029 0 0 0 211.05 107.775 A 16.213 16.213 0 0 0 212.554 108.125 Q 214.216 108.438 216.628 108.638 A 76.706 76.706 0 0 0 218.175 108.75 Q 218.475 111 218.175 113.4 Q 213.975 113.4 209.55 113.25 Q 205.747 113.121 201.003 113.103 A 413.043 413.043 0 0 0 199.425 113.1 A 335.029 335.029 0 0 0 194.326 113.137 Q 191.867 113.174 189.675 113.25 Q 185.325 113.4 180.825 113.4 Q 180.375 111 180.825 108.75 A 79.893 79.893 0 0 0 183.206 108.577 Q 186.525 108.281 188.325 107.775 A 5.035 5.035 0 0 0 189.893 107.047 Q 191.006 106.256 191.475 104.85 Q 192.088 103.011 192.2 99.367 A 56.044 56.044 0 0 0 192.225 97.65 L 192.225 64.05 A 106.776 106.776 0 0 0 192.192 61.313 Q 192.094 57.488 191.7 55.35 A 6.407 6.407 0 0 0 191.099 53.542 A 4.842 4.842 0 0 0 188.85 51.375 A 11.572 11.572 0 0 0 187.337 50.788 Q 185.652 50.251 183.077 49.817 A 65.542 65.542 0 0 0 180.975 49.5 A 10.112 10.112 0 0 1 180.772 48.092 Q 180.68 46.781 180.975 45.6 A 144.062 144.062 0 0 0 193.079 42.763 A 132.697 132.697 0 0 0 193.125 42.75 Q 198.975 41.1 204.675 38.7 L 207.225 39.6 L 207.225 50.7 A 49.418 49.418 0 0 1 216.044 44.095 Q 224.093 39.45 232.575 39.45 Q 240.825 39.45 245.025 42.9 Q 249.225 46.35 250.875 51.45 A 53.292 53.292 0 0 1 257.194 46.249 A 39.731 39.731 0 0 1 264.075 42.375 A 34.697 34.697 0 0 1 274.928 39.571 A 32.444 32.444 0 0 1 277.725 39.45 Q 285.47 39.45 290.231 43.03 A 15.316 15.316 0 0 1 292.65 45.3 A 19.035 19.035 0 0 1 296.298 52.034 Q 297.675 56.368 297.675 62.1 L 297.675 96.15 Q 297.675 102 298.275 104.55 A 5.271 5.271 0 0 0 298.829 105.991 A 3.814 3.814 0 0 0 301.125 107.775 Q 302.996 108.336 306.526 108.638 A 71.993 71.993 0 0 0 308.025 108.75 Q 308.475 111 308.025 113.4 Q 303.825 113.4 299.625 113.25 Q 296.016 113.121 291.409 113.103 A 389.947 389.947 0 0 0 289.875 113.1 Q 285.956 113.1 282.711 113.171 A 212.951 212.951 0 0 0 279.9 113.25 A 247.158 247.158 0 0 1 274.761 113.379 A 202.64 202.64 0 0 1 271.875 113.4 Q 271.425 111 271.875 108.75 A 62.57 62.57 0 0 0 274.228 108.552 Q 276.356 108.328 277.803 107.992 A 13.582 13.582 0 0 0 278.625 107.775 Q 280.875 107.1 281.7 104.85 A 9.872 9.872 0 0 0 282.099 103.371 Q 282.525 101.208 282.525 97.65 Z M 31.575 24.75 L 31.575 73.8 A 61.704 61.704 0 0 0 32.208 82.959 Q 33.721 93.011 38.85 98.775 A 23.377 23.377 0 0 0 50.73 105.848 Q 54.557 106.847 59.122 106.94 A 46.449 46.449 0 0 0 60.075 106.95 A 37.5 37.5 0 0 0 68.947 105.965 A 24.046 24.046 0 0 0 82.275 97.8 A 28.242 28.242 0 0 0 86.981 89.144 Q 89.688 81.418 89.772 70.179 A 96.844 96.844 0 0 0 89.775 69.45 L 89.775 28.35 A 123.827 123.827 0 0 0 89.752 25.87 Q 89.681 22.369 89.4 20.175 A 10.008 10.008 0 0 0 89.048 18.501 Q 88.533 16.828 87.45 15.9 A 6.464 6.464 0 0 0 85.979 14.971 Q 85.239 14.624 84.319 14.371 A 15.832 15.832 0 0 0 82.725 14.025 A 78.268 78.268 0 0 0 80.991 13.758 Q 79.038 13.477 76.407 13.177 A 290.774 290.774 0 0 0 73.875 12.9 Q 73.425 10.65 73.875 8.25 A 272.417 272.417 0 0 1 77.145 8.271 Q 78.604 8.289 80.224 8.321 A 530.78 530.78 0 0 1 83.625 8.4 Q 88.724 8.534 92.022 8.548 A 175.613 175.613 0 0 0 92.775 8.55 Q 96.434 8.55 101.879 8.407 A 626.107 626.107 0 0 0 102.15 8.4 Q 106.017 8.297 109.211 8.265 A 274.464 274.464 0 0 1 111.975 8.25 Q 112.425 10.5 111.975 12.9 Q 106.525 13.492 103.415 14.085 A 33.716 33.716 0 0 0 101.925 14.4 A 7.182 7.182 0 0 0 100.26 15.004 A 4.521 4.521 0 0 0 97.95 17.7 A 11.542 11.542 0 0 0 97.589 19.2 Q 97.125 21.788 97.125 26.4 L 97.125 72.6 A 61.836 61.836 0 0 1 95.93 85.146 Q 94.351 92.76 90.689 98.607 A 34.335 34.335 0 0 1 86.775 103.725 A 32.403 32.403 0 0 1 72.772 112.445 Q 67.496 114.171 61.063 114.684 A 71.025 71.025 0 0 1 55.425 114.9 A 62.574 62.574 0 0 1 44.818 114.043 A 46.292 46.292 0 0 1 34.35 111 Q 25.275 107.1 20.175 98.925 Q 15.527 91.475 15.115 80.473 A 58.084 58.084 0 0 1 15.075 78.3 L 15.075 26.7 Q 15.075 20.4 14.325 17.7 A 4.66 4.66 0 0 0 11.626 14.597 A 7.384 7.384 0 0 0 10.425 14.175 A 26.206 26.206 0 0 0 8.606 13.777 Q 5.513 13.2 0.225 12.75 Q -0.225 10.5 0.225 8.1 A 301.669 301.669 0 0 1 2.654 8.111 Q 4.828 8.128 7.5 8.175 L 16.05 8.325 A 643.326 643.326 0 0 0 18.098 8.358 Q 21.038 8.4 23.175 8.4 A 259.577 259.577 0 0 0 24.689 8.395 Q 27.016 8.382 30.094 8.329 A 718.13 718.13 0 0 0 30.3 8.325 Q 34.575 8.25 38.925 8.175 A 610.856 610.856 0 0 1 41.998 8.129 Q 44.4 8.1 46.275 8.1 Q 46.725 10.35 46.275 12.75 Q 40.825 13.224 37.715 13.791 A 28.791 28.791 0 0 0 36.225 14.1 A 8.111 8.111 0 0 0 34.682 14.622 Q 32.87 15.465 32.325 17.1 Q 31.756 18.808 31.619 22.33 A 62.438 62.438 0 0 0 31.575 24.75 Z M 446.775 97.65 L 446.775 67.35 A 46.85 46.85 0 0 0 446.555 62.649 Q 445.995 57.105 444 53.925 Q 441.225 49.5 432.975 49.5 Q 428.625 49.5 424.575 51.075 Q 421.632 52.219 418.294 54.829 A 46.256 46.256 0 0 0 415.725 57 L 415.725 96.15 A 81.345 81.345 0 0 0 415.767 98.869 Q 415.855 101.478 416.124 103.198 A 13.511 13.511 0 0 0 416.4 104.55 A 5.447 5.447 0 0 0 417.013 106.022 A 3.952 3.952 0 0 0 419.325 107.775 Q 421.07 108.298 424.347 108.596 A 72.252 72.252 0 0 0 426.375 108.75 Q 426.675 111 426.375 113.4 Q 422.175 113.4 417.6 113.25 A 271.259 271.259 0 0 0 412.856 113.138 A 333.13 333.13 0 0 0 407.775 113.1 Q 402.975 113.1 398.325 113.25 Q 393.675 113.4 389.175 113.4 Q 388.725 111 389.175 108.75 A 79.893 79.893 0 0 0 391.556 108.577 Q 394.875 108.281 396.675 107.775 A 5.035 5.035 0 0 0 398.243 107.047 Q 399.356 106.256 399.825 104.85 Q 400.438 103.011 400.55 99.367 A 56.044 56.044 0 0 0 400.575 97.65 L 400.575 64.05 A 106.776 106.776 0 0 0 400.542 61.313 Q 400.444 57.488 400.05 55.35 A 6.407 6.407 0 0 0 399.449 53.542 A 4.842 4.842 0 0 0 397.2 51.375 A 11.572 11.572 0 0 0 395.687 50.788 Q 394.002 50.251 391.427 49.817 A 65.542 65.542 0 0 0 389.325 49.5 A 10.112 10.112 0 0 1 389.122 48.092 Q 389.03 46.781 389.325 45.6 A 141.173 141.173 0 0 0 404.63 41.709 A 117.713 117.713 0 0 0 413.025 38.7 L 415.575 39.6 L 415.575 50.85 A 56.836 56.836 0 0 1 421.132 46.35 Q 424.15 44.223 427.109 42.84 A 31.142 31.142 0 0 1 429.075 42 A 39.674 39.674 0 0 1 435.722 40.048 A 30.862 30.862 0 0 1 441.675 39.45 Q 450.016 39.45 455.056 43.603 A 16.308 16.308 0 0 1 456.825 45.3 A 18.969 18.969 0 0 1 460.76 52.417 Q 461.664 55.306 461.947 58.8 A 40.962 40.962 0 0 1 462.075 62.1 L 462.075 96.15 A 81.345 81.345 0 0 0 462.117 98.869 Q 462.205 101.478 462.474 103.198 A 13.511 13.511 0 0 0 462.75 104.55 A 5.447 5.447 0 0 0 463.363 106.022 A 3.952 3.952 0 0 0 465.675 107.775 Q 467.414 108.297 470.766 108.594 A 75.641 75.641 0 0 0 472.875 108.75 Q 473.175 111 472.875 113.4 Q 468.375 113.4 464.1 113.25 A 219.259 219.259 0 0 0 460.693 113.159 Q 459.19 113.129 457.548 113.115 A 384.246 384.246 0 0 0 454.125 113.1 Q 450.309 113.1 447.167 113.171 A 197.554 197.554 0 0 0 444.45 113.25 Q 440.325 113.4 436.125 113.4 Q 435.825 111 436.125 108.75 A 67.384 67.384 0 0 0 438.3 108.577 Q 440.566 108.356 442.081 108.018 A 13.594 13.594 0 0 0 443.025 107.775 Q 445.275 107.1 446.025 104.85 Q 446.638 103.011 446.75 99.367 A 56.044 56.044 0 0 0 446.775 97.65 Z M 883.875 49.2 L 865.125 49.2 L 865.125 96.15 A 66.57 66.57 0 0 0 865.177 98.869 Q 865.331 102.638 865.95 104.55 Q 866.775 107.1 869.775 107.775 A 24.5 24.5 0 0 0 871.491 108.089 Q 873.46 108.385 876.325 108.584 A 127.801 127.801 0 0 0 879.225 108.75 Q 879.525 110.85 879.225 113.4 Q 874.125 113.4 868.875 113.25 Q 863.625 113.1 857.475 113.1 A 400.098 400.098 0 0 0 853.239 113.121 Q 851.583 113.139 850.111 113.171 A 191.656 191.656 0 0 0 847.35 113.25 Q 843.225 113.4 838.425 113.4 Q 838.275 111.15 838.425 108.75 A 83.533 83.533 0 0 0 840.872 108.577 Q 843.321 108.364 844.94 108.042 A 15.075 15.075 0 0 0 846.075 107.775 A 4.945 4.945 0 0 0 847.577 107.086 Q 848.709 106.298 849.143 104.873 A 5.185 5.185 0 0 0 849.15 104.85 Q 849.701 103.013 849.802 99.376 A 62.213 62.213 0 0 0 849.825 97.65 L 849.825 49.2 L 837.375 49.2 A 11.75 11.75 0 0 1 837.184 47.871 Q 837.084 46.666 837.277 45.607 A 7.178 7.178 0 0 1 837.375 45.15 Q 842.925 44.25 845.55 43.5 A 9.674 9.674 0 0 0 846.876 43.023 Q 847.521 42.731 848 42.37 A 3.559 3.559 0 0 0 849 41.25 Q 849.79 39.813 849.961 37.139 A 21.234 21.234 0 0 0 849.975 36.9 Q 850.076 34.784 850.414 31.889 A 142.123 142.123 0 0 1 850.8 28.875 Q 851.475 24 853.725 18.6 A 28.706 28.706 0 0 1 859.651 9.675 A 33.135 33.135 0 0 1 860.475 8.85 Q 865.125 4.5 871.2 2.25 Q 877.275 0 883.725 0 Q 888.075 0 892.425 1.125 A 20.161 20.161 0 0 1 896.666 2.723 A 16.496 16.496 0 0 1 899.775 4.8 Q 902.775 7.35 902.775 11.7 A 9.587 9.587 0 0 1 902.447 14.27 A 7.262 7.262 0 0 1 900.75 17.325 A 6.475 6.475 0 0 1 897.733 19.127 Q 896.682 19.43 895.419 19.487 A 13.228 13.228 0 0 1 894.825 19.5 Q 889.575 19.5 886.575 15.6 A 15.192 15.192 0 0 1 884.447 11.909 A 12.34 12.34 0 0 1 883.575 7.35 Q 882.525 7.05 881.4 6.825 A 10.751 10.751 0 0 0 880.344 6.671 Q 879.8 6.618 879.189 6.604 A 18.967 18.967 0 0 0 878.775 6.6 Q 872.327 6.6 869.016 11.745 A 14.695 14.695 0 0 0 868.425 12.75 A 20.163 20.163 0 0 0 866.83 16.886 Q 865.591 21.353 865.252 28.152 A 109.775 109.775 0 0 0 865.125 33.6 L 865.125 42.3 L 883.875 42.3 Q 884.325 45.6 883.875 49.2 Z M 124.125 89.55 Q 126.375 99.45 131.325 104.625 Q 136.275 109.8 144.075 109.8 Q 149.925 109.8 153.975 107.025 A 8.974 8.974 0 0 0 157.735 101.23 A 14.437 14.437 0 0 0 158.025 98.25 A 15.112 15.112 0 0 0 157.746 95.256 Q 157.245 92.782 155.85 91.05 A 15.155 15.155 0 0 0 152.883 88.275 A 20.935 20.935 0 0 0 149.85 86.475 A 117.229 117.229 0 0 0 145.781 84.581 A 157.183 157.183 0 0 0 141.225 82.65 Q 135.675 80.4 130.8 77.775 A 26.136 26.136 0 0 1 125.409 73.966 A 22.814 22.814 0 0 1 122.85 71.175 A 14.193 14.193 0 0 1 120.282 65.635 Q 119.775 63.459 119.775 60.9 Q 119.775 53.7 123.6 48.975 A 23.332 23.332 0 0 1 132.381 42.32 A 27.815 27.815 0 0 1 133.5 41.85 Q 139.575 39.45 146.475 39.45 Q 149.925 39.45 153.375 39.9 A 522.52 522.52 0 0 0 154.188 40.005 Q 156.691 40.328 157.081 40.349 A 0.859 0.859 0 0 0 157.125 40.35 A 53.377 53.377 0 0 0 160.013 40.706 A 41.157 41.157 0 0 0 162.675 40.875 A 2453.912 2453.912 0 0 0 163.275 40.893 Q 165.244 40.95 165.375 40.95 L 166.05 40.95 A 5.049 5.049 0 0 0 166.415 40.935 Q 166.856 40.903 167.475 40.8 Q 167.475 45.6 167.625 50.55 A 195.009 195.009 0 0 0 167.93 56.972 A 232.283 232.283 0 0 0 168.225 61.05 L 167.625 61.05 A 65.124 65.124 0 0 1 166.331 61.181 A 49.271 49.271 0 0 1 165.15 61.275 Q 164.025 61.35 162.975 61.2 A 41.811 41.811 0 0 0 161.613 56.506 Q 160.791 54.223 159.77 52.425 A 16.054 16.054 0 0 0 157.2 48.975 A 12.514 12.514 0 0 0 151.396 45.734 Q 149.449 45.223 147.142 45.159 A 24.097 24.097 0 0 0 146.475 45.15 A 22.836 22.836 0 0 0 142.539 45.469 Q 139.062 46.078 136.65 47.85 A 8.605 8.605 0 0 0 133.04 54.112 A 11.531 11.531 0 0 0 132.975 55.35 A 10.343 10.343 0 0 0 133.386 58.335 A 8.178 8.178 0 0 0 135.375 61.725 A 19.378 19.378 0 0 0 139.566 64.973 A 23.104 23.104 0 0 0 141.225 65.85 A 94.233 94.233 0 0 0 145.42 67.737 A 77.922 77.922 0 0 0 147.825 68.7 Q 153.675 70.95 159 73.725 A 27.331 27.331 0 0 1 165.149 78.046 A 24.339 24.339 0 0 1 167.7 80.85 Q 170.666 84.673 171.026 90.814 A 29.736 29.736 0 0 1 171.075 92.55 A 25.144 25.144 0 0 1 170.468 98.22 A 17.837 17.837 0 0 1 167.1 105.375 Q 163.125 110.4 156.975 112.725 Q 150.825 115.05 144.075 115.05 Q 140.175 115.05 136.35 114.45 Q 132.741 113.884 132.27 113.852 A 0.7 0.7 0 0 0 132.225 113.85 A 2.324 2.324 0 0 1 132.047 113.839 Q 131.614 113.802 130.356 113.633 A 192.452 192.452 0 0 1 129.75 113.55 Q 127.575 113.25 124.95 112.95 A 54.049 54.049 0 0 0 123.076 112.767 Q 122.15 112.694 121.326 112.666 A 28.565 28.565 0 0 0 120.375 112.65 A 135.96 135.96 0 0 0 120.281 107.738 A 185.032 185.032 0 0 0 120 102.3 A 19308.076 19308.076 0 0 1 119.606 96.3 A 25711.926 25711.926 0 0 1 119.175 89.7 L 119.925 89.7 A 94.648 94.648 0 0 1 120.885 89.598 Q 121.263 89.56 121.604 89.529 A 49.557 49.557 0 0 1 122.25 89.475 Q 123.225 89.4 124.125 89.55 Z M 737.025 89.55 Q 739.275 99.45 744.225 104.625 Q 749.175 109.8 756.975 109.8 Q 762.825 109.8 766.875 107.025 A 8.974 8.974 0 0 0 770.635 101.23 A 14.437 14.437 0 0 0 770.925 98.25 A 15.112 15.112 0 0 0 770.646 95.256 Q 770.145 92.782 768.75 91.05 A 15.155 15.155 0 0 0 765.783 88.275 A 20.935 20.935 0 0 0 762.75 86.475 A 117.229 117.229 0 0 0 758.681 84.581 A 157.183 157.183 0 0 0 754.125 82.65 Q 748.575 80.4 743.7 77.775 A 26.136 26.136 0 0 1 738.309 73.966 A 22.814 22.814 0 0 1 735.75 71.175 A 14.193 14.193 0 0 1 733.182 65.635 Q 732.675 63.459 732.675 60.9 Q 732.675 53.7 736.5 48.975 A 23.332 23.332 0 0 1 745.281 42.32 A 27.815 27.815 0 0 1 746.4 41.85 Q 752.475 39.45 759.375 39.45 Q 762.825 39.45 766.275 39.9 A 522.52 522.52 0 0 0 767.088 40.005 Q 769.591 40.328 769.981 40.349 A 0.859 0.859 0 0 0 770.025 40.35 A 53.377 53.377 0 0 0 772.913 40.706 A 41.157 41.157 0 0 0 775.575 40.875 A 2453.912 2453.912 0 0 0 776.175 40.893 Q 778.144 40.95 778.275 40.95 L 778.95 40.95 A 5.049 5.049 0 0 0 779.315 40.935 Q 779.756 40.903 780.375 40.8 Q 780.375 45.6 780.525 50.55 A 195.009 195.009 0 0 0 780.83 56.972 A 232.283 232.283 0 0 0 781.125 61.05 L 780.525 61.05 A 65.124 65.124 0 0 1 779.231 61.181 A 49.271 49.271 0 0 1 778.05 61.275 Q 776.925 61.35 775.875 61.2 A 41.811 41.811 0 0 0 774.513 56.506 Q 773.691 54.223 772.67 52.425 A 16.054 16.054 0 0 0 770.1 48.975 A 12.514 12.514 0 0 0 764.296 45.734 Q 762.349 45.223 760.042 45.159 A 24.097 24.097 0 0 0 759.375 45.15 A 22.836 22.836 0 0 0 755.439 45.469 Q 751.962 46.078 749.55 47.85 A 8.605 8.605 0 0 0 745.94 54.112 A 11.531 11.531 0 0 0 745.875 55.35 A 10.343 10.343 0 0 0 746.286 58.335 A 8.178 8.178 0 0 0 748.275 61.725 A 19.378 19.378 0 0 0 752.466 64.973 A 23.104 23.104 0 0 0 754.125 65.85 A 94.233 94.233 0 0 0 758.32 67.737 A 77.922 77.922 0 0 0 760.725 68.7 Q 766.575 70.95 771.9 73.725 A 27.331 27.331 0 0 1 778.049 78.046 A 24.339 24.339 0 0 1 780.6 80.85 Q 783.566 84.673 783.926 90.814 A 29.736 29.736 0 0 1 783.975 92.55 A 25.144 25.144 0 0 1 783.368 98.22 A 17.837 17.837 0 0 1 780 105.375 Q 776.025 110.4 769.875 112.725 Q 763.725 115.05 756.975 115.05 Q 753.075 115.05 749.25 114.45 Q 745.641 113.884 745.17 113.852 A 0.7 0.7 0 0 0 745.125 113.85 A 2.324 2.324 0 0 1 744.947 113.839 Q 744.514 113.802 743.256 113.633 A 192.452 192.452 0 0 1 742.65 113.55 Q 740.475 113.25 737.85 112.95 A 54.049 54.049 0 0 0 735.976 112.767 Q 735.05 112.694 734.226 112.666 A 28.565 28.565 0 0 0 733.275 112.65 A 135.96 135.96 0 0 0 733.181 107.738 A 185.032 185.032 0 0 0 732.9 102.3 A 19308.076 19308.076 0 0 1 732.506 96.3 A 25711.926 25711.926 0 0 1 732.075 89.7 L 732.825 89.7 A 94.648 94.648 0 0 1 733.785 89.598 Q 734.163 89.56 734.504 89.529 A 49.557 49.557 0 0 1 735.15 89.475 Q 736.125 89.4 737.025 89.55 Z M 363.638 113.967 A 14.831 14.831 0 0 0 368.625 114.75 A 19.567 19.567 0 0 0 370.72 114.638 A 21.192 21.192 0 0 0 376.95 112.95 A 20.815 20.815 0 0 0 381.35 110.308 A 28.587 28.587 0 0 0 384.825 107.1 A 30.938 30.938 0 0 0 384.656 106.313 A 41.308 41.308 0 0 0 384.45 105.45 Q 384.225 104.55 383.625 103.8 A 68.662 68.662 0 0 1 381.508 104.451 Q 378.893 105.207 377.065 105.465 A 12.215 12.215 0 0 1 375.375 105.6 Q 371.175 105.6 371.175 100.8 A 190.426 190.426 0 0 1 371.177 100.016 Q 371.191 96.583 371.325 91.35 Q 371.475 85.5 371.55 78.975 A 933.105 933.105 0 0 1 371.644 72.638 A 777.37 777.37 0 0 1 371.775 66.675 A 672.331 672.331 0 0 0 371.805 65.481 Q 371.925 60.52 371.925 57.3 A 20.221 20.221 0 0 0 371.625 53.745 A 14.803 14.803 0 0 0 369 47.475 Q 366.075 43.5 361.35 41.475 A 24.248 24.248 0 0 0 358.627 40.496 A 26.677 26.677 0 0 0 351.075 39.45 Q 346.575 39.45 340.875 40.8 Q 335.175 42.15 329.925 44.475 A 35.426 35.426 0 0 0 325.415 46.852 A 25.799 25.799 0 0 0 321.3 50.025 A 15.878 15.878 0 0 0 320.805 50.519 Q 319.776 51.592 319.115 52.707 A 8.015 8.015 0 0 0 317.925 56.85 A 7.717 7.717 0 0 0 317.925 56.934 A 6.214 6.214 0 0 0 319.8 61.425 A 6.042 6.042 0 0 0 319.819 61.444 Q 321.03 62.644 322.831 63.068 A 9.348 9.348 0 0 0 324.975 63.3 Q 328.725 63.3 331.35 60.825 A 16.398 16.398 0 0 0 332.809 59.256 A 18.079 18.079 0 0 0 335.475 54.75 A 21.273 21.273 0 0 0 336.204 52.723 A 17.302 17.302 0 0 0 336.975 47.7 A 11.584 11.584 0 0 1 337.828 47.361 Q 340.271 46.5 343.575 46.5 A 18.375 18.375 0 0 1 345.624 46.612 A 14.172 14.172 0 0 1 352.8 49.425 A 9.292 9.292 0 0 1 356.087 53.989 A 11.543 11.543 0 0 1 356.625 57.6 A 433.533 433.533 0 0 1 356.606 61.688 A 365.903 365.903 0 0 1 356.55 65.55 Q 356.475 69.3 356.475 72.9 Q 334.389 75.692 324.392 82.887 A 17.789 17.789 0 0 0 316.125 97.8 A 21.694 21.694 0 0 0 316.345 100.945 A 14.974 14.974 0 0 0 321.45 110.475 A 18.365 18.365 0 0 0 327.56 113.977 A 21.218 21.218 0 0 0 334.425 115.05 A 24.34 24.34 0 0 0 339.874 114.429 Q 344.547 113.359 349.137 110.446 A 45.48 45.48 0 0 0 356.175 104.85 Q 358.008 111.966 363.638 113.967 Z M 704.588 113.967 A 14.831 14.831 0 0 0 709.575 114.75 A 19.567 19.567 0 0 0 711.67 114.638 A 21.192 21.192 0 0 0 717.9 112.95 A 20.815 20.815 0 0 0 722.3 110.308 A 28.587 28.587 0 0 0 725.775 107.1 A 30.938 30.938 0 0 0 725.606 106.313 A 41.308 41.308 0 0 0 725.4 105.45 Q 725.175 104.55 724.575 103.8 A 68.662 68.662 0 0 1 722.458 104.451 Q 719.843 105.207 718.015 105.465 A 12.215 12.215 0 0 1 716.325 105.6 Q 712.125 105.6 712.125 100.8 A 190.426 190.426 0 0 1 712.127 100.016 Q 712.141 96.583 712.275 91.35 Q 712.425 85.5 712.5 78.975 A 933.105 933.105 0 0 1 712.594 72.638 A 777.37 777.37 0 0 1 712.725 66.675 A 672.331 672.331 0 0 0 712.755 65.481 Q 712.875 60.52 712.875 57.3 A 20.221 20.221 0 0 0 712.575 53.745 A 14.803 14.803 0 0 0 709.95 47.475 Q 707.025 43.5 702.3 41.475 A 24.248 24.248 0 0 0 699.577 40.496 A 26.677 26.677 0 0 0 692.025 39.45 Q 687.525 39.45 681.825 40.8 Q 676.125 42.15 670.875 44.475 A 35.426 35.426 0 0 0 666.365 46.852 A 25.799 25.799 0 0 0 662.25 50.025 A 15.878 15.878 0 0 0 661.755 50.519 Q 660.726 51.592 660.065 52.707 A 8.015 8.015 0 0 0 658.875 56.85 A 7.717 7.717 0 0 0 658.875 56.934 A 6.214 6.214 0 0 0 660.75 61.425 A 6.042 6.042 0 0 0 660.769 61.444 Q 661.98 62.644 663.781 63.068 A 9.348 9.348 0 0 0 665.925 63.3 Q 669.675 63.3 672.3 60.825 A 16.398 16.398 0 0 0 673.759 59.256 A 18.079 18.079 0 0 0 676.425 54.75 A 21.273 21.273 0 0 0 677.154 52.723 A 17.302 17.302 0 0 0 677.925 47.7 A 11.584 11.584 0 0 1 678.778 47.361 Q 681.221 46.5 684.525 46.5 A 18.375 18.375 0 0 1 686.574 46.612 A 14.172 14.172 0 0 1 693.75 49.425 A 9.292 9.292 0 0 1 697.037 53.989 A 11.543 11.543 0 0 1 697.575 57.6 A 433.533 433.533 0 0 1 697.556 61.688 A 365.903 365.903 0 0 1 697.5 65.55 Q 697.425 69.3 697.425 72.9 Q 675.339 75.692 665.342 82.887 A 17.789 17.789 0 0 0 657.075 97.8 A 21.694 21.694 0 0 0 657.295 100.945 A 14.974 14.974 0 0 0 662.4 110.475 A 18.365 18.365 0 0 0 668.51 113.977 A 21.218 21.218 0 0 0 675.375 115.05 A 24.34 24.34 0 0 0 680.824 114.429 Q 685.497 113.359 690.087 110.446 A 45.48 45.48 0 0 0 697.125 104.85 Q 698.958 111.966 704.588 113.967 Z M 805.125 97.65 L 805.125 64.05 Q 805.125 59.321 804.831 56.552 A 24.014 24.014 0 0 0 804.675 55.35 A 6.231 6.231 0 0 0 804.144 53.594 A 4.681 4.681 0 0 0 801.9 51.375 Q 800.122 50.515 796.37 49.874 A 65.967 65.967 0 0 0 793.875 49.5 A 10.112 10.112 0 0 1 793.672 48.092 Q 793.58 46.781 793.875 45.6 Q 800.475 44.4 806.475 42.6 Q 812.475 40.8 818.025 38.7 L 820.575 39.6 A 705.042 705.042 0 0 0 820.444 44.1 A 572.915 572.915 0 0 0 820.35 48.3 A 452.25 452.25 0 0 0 820.294 52.238 A 378.949 378.949 0 0 0 820.275 55.95 L 820.275 96.15 A 81.345 81.345 0 0 0 820.317 98.869 Q 820.405 101.478 820.674 103.198 A 13.511 13.511 0 0 0 820.95 104.55 A 5.264 5.264 0 0 0 821.59 106.052 A 4.029 4.029 0 0 0 823.95 107.775 Q 825.753 108.298 829.134 108.596 A 76.866 76.866 0 0 0 831.225 108.75 Q 831.675 111 831.225 113.4 A 257.989 257.989 0 0 1 823.645 113.285 A 286.126 286.126 0 0 1 822.525 113.25 Q 818.025 113.1 812.775 113.1 Q 807.975 113.1 803.1 113.25 Q 798.225 113.4 793.725 113.4 Q 793.275 111 793.725 108.75 A 79.893 79.893 0 0 0 796.106 108.577 Q 799.425 108.281 801.225 107.775 A 5.035 5.035 0 0 0 802.793 107.047 Q 803.906 106.256 804.375 104.85 Q 804.988 103.011 805.1 99.367 A 56.044 56.044 0 0 0 805.125 97.65 Z M 356.175 100.8 L 356.475 78.3 Q 342.675 80.1 337.5 84.15 A 13.994 13.994 0 0 0 334.055 87.968 A 12.473 12.473 0 0 0 332.325 94.5 A 15.87 15.87 0 0 0 332.617 97.644 Q 332.987 99.476 333.828 100.887 A 8.347 8.347 0 0 0 335.1 102.525 A 9.367 9.367 0 0 0 341.62 105.292 A 12.37 12.37 0 0 0 342.075 105.3 A 14.544 14.544 0 0 0 344.66 105.054 Q 345.893 104.831 347.24 104.406 A 26.729 26.729 0 0 0 348.15 104.1 A 76.477 76.477 0 0 0 350.861 103.073 Q 352.065 102.593 353.393 102.025 A 152.485 152.485 0 0 0 356.175 100.8 Z M 697.125 100.8 L 697.425 78.3 Q 683.625 80.1 678.45 84.15 A 13.994 13.994 0 0 0 675.005 87.968 A 12.473 12.473 0 0 0 673.275 94.5 A 15.87 15.87 0 0 0 673.567 97.644 Q 673.937 99.476 674.778 100.887 A 8.347 8.347 0 0 0 676.05 102.525 A 9.367 9.367 0 0 0 682.57 105.292 A 12.37 12.37 0 0 0 683.025 105.3 A 14.544 14.544 0 0 0 685.61 105.054 Q 686.843 104.831 688.19 104.406 A 26.729 26.729 0 0 0 689.1 104.1 A 76.477 76.477 0 0 0 691.811 103.073 Q 693.015 102.593 694.343 102.025 A 152.485 152.485 0 0 0 697.125 100.8 Z M 802.295 8.538 A 10.105 10.105 0 0 0 801.225 13.2 A 11.682 11.682 0 0 0 801.226 13.331 A 9.81 9.81 0 0 0 804.225 20.4 A 12.035 12.035 0 0 0 804.319 20.493 A 9.805 9.805 0 0 0 811.425 23.4 A 13.084 13.084 0 0 0 811.857 23.393 A 9.912 9.912 0 0 0 819.075 20.175 A 13.286 13.286 0 0 0 820.095 18.942 A 9.817 9.817 0 0 0 822.075 13.05 A 9.912 9.912 0 0 0 821.444 9.49 A 10.089 10.089 0 0 0 819 5.85 Q 815.925 2.85 811.725 2.85 Q 807.375 2.85 804.3 5.85 A 10.281 10.281 0 0 0 802.295 8.538 Z" vector-effect="non-scaling-stroke"/></g></svg>